# xmcd CD database file
#
# Track frame offsets:
#	150
#	36617
#	53670
#	84455
#	114402
#	142860
#	169520
#	189282
#
# Disc length: 3157 seconds
#
# Revision: 0
# Processed by: cddbd v1.5.2PL0 Copyright (c) Steve Scherf et al.
# Submitted via: CDex 1.51
#
DISCID=5e0c5308
DTITLE=Hornstein, Michael - Dry red
DYEAR=1995
DGENRE=Jazz
TTITLE0=Drogedary
TTITLE1=We go
TTITLE2=Sigrid's secret
TTITLE3=Golem's dance
TTITLE4=Dr. Caligari
TTITLE5=Walking on eggs
TTITLE6=Hallucination
TTITLE7=Blues for d'Arci
EXTD=YEAR: 1995
EXTT0=
EXTT1=
EXTT2=
EXTT3=
EXTT4=
EXTT5=
EXTT6=
EXTT7=
PLAYORDER=
